<mxfile host="app.diagrams.net" modified="2023-02-23T09:28:30.043Z" agent="5.0 (Windows NT 10.0; Win64; x64) AppleWebKit/537.36 (KHTML, like Gecko) Chrome/110.0.0.0 Safari/537.36" etag="gmVTPqvsA38BMgOeFGk0" version="20.8.23" type="github">
  <diagram name="Strona-1" id="Jq2TEUdEwF23J8fbt4vq">
    <mxGraphModel dx="2261" dy="796" grid="1" gridSize="10" guides="1" tooltips="1" connect="1" arrows="1" fold="1" page="1" pageScale="1" pageWidth="827" pageHeight="1169" math="0" shadow="0">
      <root>
        <mxCell id="0" />
        <mxCell id="1" parent="0" />
        <mxCell id="x8N2-jWmj8x6_mGQ0wVk-18" value="" style="edgeStyle=orthogonalEdgeStyle;rounded=0;orthogonalLoop=1;jettySize=auto;html=1;" edge="1" parent="1" source="x8N2-jWmj8x6_mGQ0wVk-1" target="x8N2-jWmj8x6_mGQ0wVk-9">
          <mxGeometry relative="1" as="geometry" />
        </mxCell>
        <mxCell id="x8N2-jWmj8x6_mGQ0wVk-1" value="START" style="ellipse;whiteSpace=wrap;html=1;" vertex="1" parent="1">
          <mxGeometry x="354" y="40" width="120" height="80" as="geometry" />
        </mxCell>
        <mxCell id="x8N2-jWmj8x6_mGQ0wVk-2" value="liczba = a[i]" style="rounded=1;whiteSpace=wrap;html=1;" vertex="1" parent="1">
          <mxGeometry x="600" y="300" width="120" height="60" as="geometry" />
        </mxCell>
        <mxCell id="x8N2-jWmj8x6_mGQ0wVk-3" value="i &amp;lt; len(a)" style="rhombus;whiteSpace=wrap;html=1;" vertex="1" parent="1">
          <mxGeometry x="374" y="280" width="80" height="80" as="geometry" />
        </mxCell>
        <mxCell id="x8N2-jWmj8x6_mGQ0wVk-4" value="j &amp;lt; len(a)" style="rhombus;whiteSpace=wrap;html=1;" vertex="1" parent="1">
          <mxGeometry x="454" y="440" width="80" height="80" as="geometry" />
        </mxCell>
        <mxCell id="x8N2-jWmj8x6_mGQ0wVk-5" value="END" style="ellipse;whiteSpace=wrap;html=1;" vertex="1" parent="1">
          <mxGeometry x="-130" y="360" width="120" height="80" as="geometry" />
        </mxCell>
        <mxCell id="x8N2-jWmj8x6_mGQ0wVk-6" value="" style="endArrow=classic;html=1;rounded=0;entryX=0.5;entryY=0;entryDx=0;entryDy=0;exitX=0;exitY=0.5;exitDx=0;exitDy=0;" edge="1" parent="1" source="x8N2-jWmj8x6_mGQ0wVk-3" target="x8N2-jWmj8x6_mGQ0wVk-5">
          <mxGeometry width="50" height="50" relative="1" as="geometry">
            <mxPoint x="390" y="410" as="sourcePoint" />
            <mxPoint x="440" y="360" as="targetPoint" />
          </mxGeometry>
        </mxCell>
        <mxCell id="x8N2-jWmj8x6_mGQ0wVk-7" value="T" style="text;html=1;align=center;verticalAlign=middle;resizable=0;points=[];autosize=1;strokeColor=none;fillColor=none;" vertex="1" parent="1">
          <mxGeometry x="510" y="280" width="30" height="30" as="geometry" />
        </mxCell>
        <mxCell id="x8N2-jWmj8x6_mGQ0wVk-8" value="F" style="text;html=1;align=center;verticalAlign=middle;resizable=0;points=[];autosize=1;strokeColor=none;fillColor=none;" vertex="1" parent="1">
          <mxGeometry x="220" y="280" width="30" height="30" as="geometry" />
        </mxCell>
        <mxCell id="x8N2-jWmj8x6_mGQ0wVk-9" value="a = []&lt;br style=&quot;border-color: var(--border-color);&quot;&gt;liczb = 0&lt;br style=&quot;border-color: var(--border-color);&quot;&gt;ilość = 0&lt;br&gt;i = 0&lt;br style=&quot;border-color: var(--border-color);&quot;&gt;j = 0" style="rounded=0;whiteSpace=wrap;html=1;" vertex="1" parent="1">
          <mxGeometry x="354" y="160" width="120" height="80" as="geometry" />
        </mxCell>
        <mxCell id="x8N2-jWmj8x6_mGQ0wVk-10" value="" style="endArrow=classic;html=1;rounded=0;entryX=0;entryY=0.5;entryDx=0;entryDy=0;exitX=1;exitY=0.5;exitDx=0;exitDy=0;" edge="1" parent="1" source="x8N2-jWmj8x6_mGQ0wVk-3" target="x8N2-jWmj8x6_mGQ0wVk-2">
          <mxGeometry width="50" height="50" relative="1" as="geometry">
            <mxPoint x="380" y="410" as="sourcePoint" />
            <mxPoint x="430" y="360" as="targetPoint" />
          </mxGeometry>
        </mxCell>
        <mxCell id="x8N2-jWmj8x6_mGQ0wVk-11" value="" style="endArrow=classic;html=1;rounded=0;entryX=0.5;entryY=0;entryDx=0;entryDy=0;exitX=0.5;exitY=1;exitDx=0;exitDy=0;" edge="1" parent="1" source="x8N2-jWmj8x6_mGQ0wVk-2" target="x8N2-jWmj8x6_mGQ0wVk-4">
          <mxGeometry width="50" height="50" relative="1" as="geometry">
            <mxPoint x="380" y="410" as="sourcePoint" />
            <mxPoint x="430" y="360" as="targetPoint" />
          </mxGeometry>
        </mxCell>
        <mxCell id="x8N2-jWmj8x6_mGQ0wVk-12" value="liczba == a[j]" style="rhombus;whiteSpace=wrap;html=1;" vertex="1" parent="1">
          <mxGeometry x="294" y="530" width="80" height="80" as="geometry" />
        </mxCell>
        <mxCell id="x8N2-jWmj8x6_mGQ0wVk-13" value="" style="endArrow=classic;html=1;rounded=0;entryX=0.5;entryY=0;entryDx=0;entryDy=0;exitX=0.5;exitY=1;exitDx=0;exitDy=0;" edge="1" parent="1" source="x8N2-jWmj8x6_mGQ0wVk-4" target="x8N2-jWmj8x6_mGQ0wVk-12">
          <mxGeometry width="50" height="50" relative="1" as="geometry">
            <mxPoint x="380" y="410" as="sourcePoint" />
            <mxPoint x="430" y="360" as="targetPoint" />
          </mxGeometry>
        </mxCell>
        <mxCell id="x8N2-jWmj8x6_mGQ0wVk-14" value="T" style="text;html=1;align=center;verticalAlign=middle;resizable=0;points=[];autosize=1;strokeColor=none;fillColor=none;" vertex="1" parent="1">
          <mxGeometry x="390" y="500" width="30" height="30" as="geometry" />
        </mxCell>
        <mxCell id="x8N2-jWmj8x6_mGQ0wVk-15" value="" style="endArrow=classic;html=1;rounded=0;exitX=0;exitY=0.5;exitDx=0;exitDy=0;" edge="1" parent="1" source="x8N2-jWmj8x6_mGQ0wVk-4" target="x8N2-jWmj8x6_mGQ0wVk-25">
          <mxGeometry width="50" height="50" relative="1" as="geometry">
            <mxPoint x="380" y="410" as="sourcePoint" />
            <mxPoint x="380" y="420" as="targetPoint" />
          </mxGeometry>
        </mxCell>
        <mxCell id="x8N2-jWmj8x6_mGQ0wVk-16" value="F" style="text;html=1;align=center;verticalAlign=middle;resizable=0;points=[];autosize=1;strokeColor=none;fillColor=none;" vertex="1" parent="1">
          <mxGeometry x="399" y="440" width="30" height="30" as="geometry" />
        </mxCell>
        <mxCell id="x8N2-jWmj8x6_mGQ0wVk-17" value="" style="endArrow=classic;html=1;rounded=0;entryX=0.5;entryY=0;entryDx=0;entryDy=0;exitX=0.5;exitY=1;exitDx=0;exitDy=0;" edge="1" parent="1" source="x8N2-jWmj8x6_mGQ0wVk-9" target="x8N2-jWmj8x6_mGQ0wVk-3">
          <mxGeometry width="50" height="50" relative="1" as="geometry">
            <mxPoint x="380" y="510" as="sourcePoint" />
            <mxPoint x="430" y="460" as="targetPoint" />
          </mxGeometry>
        </mxCell>
        <mxCell id="x8N2-jWmj8x6_mGQ0wVk-22" value="" style="endArrow=classic;html=1;rounded=0;exitX=0.5;exitY=1;exitDx=0;exitDy=0;" edge="1" parent="1" source="x8N2-jWmj8x6_mGQ0wVk-12" target="x8N2-jWmj8x6_mGQ0wVk-23">
          <mxGeometry width="50" height="50" relative="1" as="geometry">
            <mxPoint x="380" y="510" as="sourcePoint" />
            <mxPoint x="340" y="690" as="targetPoint" />
          </mxGeometry>
        </mxCell>
        <mxCell id="x8N2-jWmj8x6_mGQ0wVk-23" value="ilość +=1" style="rounded=1;whiteSpace=wrap;html=1;" vertex="1" parent="1">
          <mxGeometry x="290" y="690" width="120" height="60" as="geometry" />
        </mxCell>
        <mxCell id="x8N2-jWmj8x6_mGQ0wVk-25" value="Wypisz a[i] ilość&lt;br&gt;j = 0&lt;br&gt;ilość = 0" style="rounded=1;whiteSpace=wrap;html=1;" vertex="1" parent="1">
          <mxGeometry x="231" y="410" width="120" height="60" as="geometry" />
        </mxCell>
        <mxCell id="x8N2-jWmj8x6_mGQ0wVk-26" value="" style="endArrow=classic;html=1;rounded=0;exitX=1;exitY=0;exitDx=0;exitDy=0;entryX=0.5;entryY=1;entryDx=0;entryDy=0;" edge="1" parent="1" source="x8N2-jWmj8x6_mGQ0wVk-25" target="x8N2-jWmj8x6_mGQ0wVk-3">
          <mxGeometry width="50" height="50" relative="1" as="geometry">
            <mxPoint x="380" y="510" as="sourcePoint" />
            <mxPoint x="430" y="460" as="targetPoint" />
          </mxGeometry>
        </mxCell>
        <mxCell id="x8N2-jWmj8x6_mGQ0wVk-27" value="" style="endArrow=classic;html=1;rounded=0;exitX=1;exitY=0;exitDx=0;exitDy=0;entryX=1;entryY=0.5;entryDx=0;entryDy=0;" edge="1" parent="1" source="x8N2-jWmj8x6_mGQ0wVk-23" target="x8N2-jWmj8x6_mGQ0wVk-4">
          <mxGeometry width="50" height="50" relative="1" as="geometry">
            <mxPoint x="380" y="510" as="sourcePoint" />
            <mxPoint x="430" y="460" as="targetPoint" />
          </mxGeometry>
        </mxCell>
        <mxCell id="x8N2-jWmj8x6_mGQ0wVk-28" value="F" style="endArrow=classic;html=1;rounded=0;exitX=1;exitY=0.5;exitDx=0;exitDy=0;entryX=0.5;entryY=1;entryDx=0;entryDy=0;" edge="1" parent="1" source="x8N2-jWmj8x6_mGQ0wVk-12" target="x8N2-jWmj8x6_mGQ0wVk-4">
          <mxGeometry width="50" height="50" relative="1" as="geometry">
            <mxPoint x="380" y="410" as="sourcePoint" />
            <mxPoint x="430" y="360" as="targetPoint" />
          </mxGeometry>
        </mxCell>
      </root>
    </mxGraphModel>
  </diagram>
</mxfile>
